<svg width="126" height="35" viewBox="0 0 126 35" fill="none" xmlns="http://www.w3.org/2000/svg">
<path d="M7.00938 34.0283V7.54582L0.934375 11.2583V5.27332L7.00938 1.62832H12.5444V34.0283H7.00938ZM31.6458 34.7033C29.3508 34.7033 27.3258 34.2158 25.5708 33.2408C23.8158 32.2508 22.4433 30.8783 21.4533 29.1233C20.4783 27.3683 19.9908 25.3433 19.9908 23.0483V12.6083C19.9908 10.3133 20.4783 8.28832 21.4533 6.53332C22.4433 4.77832 23.8158 3.41332 25.5708 2.43832C27.3258 1.44832 29.3508 0.95332 31.6458 0.95332C33.9408 0.95332 35.9583 1.44832 37.6983 2.43832C39.4533 3.41332 40.8258 4.77832 41.8158 6.53332C42.8058 8.28832 43.3008 10.3133 43.3008 12.6083V23.0483C43.3008 25.3433 42.8058 27.3683 41.8158 29.1233C40.8258 30.8783 39.4533 32.2508 37.6983 33.2408C35.9583 34.2158 33.9408 34.7033 31.6458 34.7033ZM31.6458 29.5508C32.7858 29.5508 33.8208 29.2808 34.7508 28.7408C35.6808 28.1858 36.4158 27.4508 36.9558 26.5358C37.4958 25.6058 37.7658 24.5708 37.7658 23.4308V12.2033C37.7658 11.0483 37.4958 10.0133 36.9558 9.09832C36.4158 8.16832 35.6808 7.43332 34.7508 6.89332C33.8208 6.33832 32.7858 6.06082 31.6458 6.06082C30.5058 6.06082 29.4708 6.33832 28.5408 6.89332C27.6108 7.43332 26.8758 8.16832 26.3358 9.09832C25.7958 10.0133 25.5258 11.0483 25.5258 12.2033V23.4308C25.5258 24.5708 25.7958 25.6058 26.3358 26.5358C26.8758 27.4508 27.6108 28.1858 28.5408 28.7408C29.4708 29.2808 30.5058 29.5508 31.6458 29.5508ZM60.14 34.7033C57.845 34.7033 55.82 34.2158 54.065 33.2408C52.31 32.2508 50.9375 30.8783 49.9475 29.1233C48.9725 27.3683 48.485 25.3433 48.485 23.0483V12.6083C48.485 10.3133 48.9725 8.28832 49.9475 6.53332C50.9375 4.77832 52.31 3.41332 54.065 2.43832C55.82 1.44832 57.845 0.95332 60.14 0.95332C62.435 0.95332 64.4525 1.44832 66.1925 2.43832C67.9475 3.41332 69.32 4.77832 70.31 6.53332C71.3 8.28832 71.795 10.3133 71.795 12.6083V23.0483C71.795 25.3433 71.3 27.3683 70.31 29.1233C69.32 30.8783 67.9475 32.2508 66.1925 33.2408C64.4525 34.2158 62.435 34.7033 60.14 34.7033ZM60.14 29.5508C61.28 29.5508 62.315 29.2808 63.245 28.7408C64.175 28.1858 64.91 27.4508 65.45 26.5358C65.99 25.6058 66.26 24.5708 66.26 23.4308V12.2033C66.26 11.0483 65.99 10.0133 65.45 9.09832C64.91 8.16832 64.175 7.43332 63.245 6.89332C62.315 6.33832 61.28 6.06082 60.14 6.06082C59 6.06082 57.965 6.33832 57.035 6.89332C56.105 7.43332 55.37 8.16832 54.83 9.09832C54.29 10.0133 54.02 11.0483 54.02 12.2033V23.4308C54.02 24.5708 54.29 25.6058 54.83 26.5358C55.37 27.4508 56.105 28.1858 57.035 28.7408C57.965 29.2808 59 29.5508 60.14 29.5508ZM88.6341 34.7033C86.3391 34.7033 84.3141 34.2158 82.5591 33.2408C80.8041 32.2508 79.4316 30.8783 78.4416 29.1233C77.4666 27.3683 76.9791 25.3433 76.9791 23.0483V12.6083C76.9791 10.3133 77.4666 8.28832 78.4416 6.53332C79.4316 4.77832 80.8041 3.41332 82.5591 2.43832C84.3141 1.44832 86.3391 0.95332 88.6341 0.95332C90.9291 0.95332 92.9466 1.44832 94.6866 2.43832C96.4416 3.41332 97.8141 4.77832 98.8041 6.53332C99.7941 8.28832 100.289 10.3133 100.289 12.6083V23.0483C100.289 25.3433 99.7941 27.3683 98.8041 29.1233C97.8141 30.8783 96.4416 32.2508 94.6866 33.2408C92.9466 34.2158 90.9291 34.7033 88.6341 34.7033ZM88.6341 29.5508C89.7741 29.5508 90.8091 29.2808 91.7391 28.7408C92.6691 28.1858 93.4041 27.4508 93.9441 26.5358C94.4841 25.6058 94.7541 24.5708 94.7541 23.4308V12.2033C94.7541 11.0483 94.4841 10.0133 93.9441 9.09832C93.4041 8.16832 92.6691 7.43332 91.7391 6.89332C90.8091 6.33832 89.7741 6.06082 88.6341 6.06082C87.4941 6.06082 86.4591 6.33832 85.5291 6.89332C84.5991 7.43332 83.8641 8.16832 83.3241 9.09832C82.7841 10.0133 82.5141 11.0483 82.5141 12.2033V23.4308C82.5141 24.5708 82.7841 25.6058 83.3241 26.5358C83.8641 27.4508 84.5991 28.1858 85.5291 28.7408C86.4591 29.2808 87.4941 29.5508 88.6341 29.5508ZM113.078 27.9983V19.9433H105.023V15.6908H113.078V7.65832H117.331V15.6908H125.341V19.9433H117.331V27.9983H113.078Z" fill="url(#paint0_linear_0_766)"/>
<defs>
<linearGradient id="paint0_linear_0_766" x1="49.5871" y1="27.1595" x2="78.1675" y2="-19.1471" gradientUnits="userSpaceOnUse">
<stop stop-color="#D3DB85"/>
<stop offset="1" stop-color="#A1BF0C"/>
</linearGradient>
</defs>
</svg>
