<svg width="70" height="56" viewBox="0 0 70 56" fill="none" xmlns="http://www.w3.org/2000/svg">
<path fill-rule="evenodd" clip-rule="evenodd" d="M47.4283 20.7047L28.2953 1.57172C26.1997 -0.523906 22.8014 -0.523906 20.7058 1.57172L1.57172 20.7047C-0.523906 22.8003 -0.523906 26.1986 1.57172 28.2942L20.7047 47.4283C22.8003 49.5239 26.1986 49.5239 28.2942 47.4283L47.4283 28.2953C49.5239 26.1986 49.5239 22.8003 47.4283 20.7047ZM51.7628 21H64.75C67.6495 21 70 23.3505 70 26.25V50.75C70 53.6495 67.6495 56 64.75 56H40.25C37.3505 56 35 53.6495 35 50.75V45.6728L49.9034 30.7694C52.5416 28.1313 53.1508 24.2364 51.7628 21ZM49.875 38.5C49.875 39.9492 51.0508 41.125 52.5 41.125C53.9492 41.125 55.125 39.9492 55.125 38.5C55.125 37.0497 53.9492 35.875 52.5 35.875C51.0508 35.875 49.875 37.0497 49.875 38.5ZM7.875 24.5C7.875 25.9492 9.05078 27.125 10.5 27.125C11.9492 27.125 13.125 25.9492 13.125 24.5C13.125 23.0497 11.9492 21.875 10.5 21.875C9.05078 21.875 7.875 23.0497 7.875 24.5ZM24.5 41.125C23.0508 41.125 21.875 39.9492 21.875 38.5C21.875 37.0497 23.0508 35.875 24.5 35.875C25.9492 35.875 27.125 37.0497 27.125 38.5C27.125 39.9492 25.9492 41.125 24.5 41.125ZM21.875 24.5C21.875 25.9492 23.0508 27.125 24.5 27.125C25.9492 27.125 27.125 25.9492 27.125 24.5C27.125 23.0497 25.9492 21.875 24.5 21.875C23.0508 21.875 21.875 23.0497 21.875 24.5ZM24.5 13.125C23.0508 13.125 21.875 11.9492 21.875 10.5C21.875 9.04969 23.0508 7.875 24.5 7.875C25.9492 7.875 27.125 9.04969 27.125 10.5C27.125 11.9492 25.9492 13.125 24.5 13.125ZM35.875 24.5C35.875 25.9492 37.0508 27.125 38.5 27.125C39.9492 27.125 41.125 25.9492 41.125 24.5C41.125 23.0497 39.9492 21.875 38.5 21.875C37.0508 21.875 35.875 23.0497 35.875 24.5Z" fill="url(#paint0_linear_0_1398)"/>
<defs>
<linearGradient id="paint0_linear_0_1398" x1="38.1483" y1="65.9972" x2="72.7608" y2="11.0789" gradientUnits="userSpaceOnUse">
<stop stop-color="#9DDB85"/>
<stop offset="1" stop-color="#A1BF0C"/>
</linearGradient>
</defs>
</svg>
