<svg width="303" height="121" viewBox="0 0 303 121" fill="none" xmlns="http://www.w3.org/2000/svg">
<path d="M-356.475 1.69336C-356.475 1.69336 -337.513 105.039 -282.771 96.0807C-228.029 87.1221 -226.791 77.6846 -241.195 53.7319C-255.599 29.7793 -270.91 115.83 -242.286 119.595C-213.662 123.361 -185.573 17.1199 -100.39 43.4736C-15.2066 69.8274 -98.1711 116.521 -118.567 100.29C-138.963 84.0596 -6.38508 26.0527 74.1809 30.8995C154.747 35.7463 149.975 97.9552 191.135 73.4402C232.295 48.9252 251.162 26.8656 214.539 34.5631C177.917 42.2606 216.494 95.4108 265.953 95.4108C315.411 95.4108 347.825 43.4736 347.825 43.4736" stroke="#949B72" stroke-width="2" stroke-linecap="round" stroke-dasharray="0 4"/>
</svg>
