<svg width="15" height="19" viewBox="0 0 15 19" fill="none" xmlns="http://www.w3.org/2000/svg">
<path d="M10.4199 4.8042C10.9253 4.8042 12.7334 4.84912 13.9126 6.55615C13.8115 6.63477 12.0146 7.65674 12.0146 9.92529C12.0146 12.542 14.3057 13.4741 14.373 13.4966C14.3618 13.5527 14.0024 14.7656 13.1714 16.001C12.4189 17.0791 11.6216 18.1797 10.4199 18.1797C9.21826 18.1797 8.90381 17.4722 7.53369 17.4722C6.1748 17.4722 5.69189 18.2021 4.60254 18.2021C3.50195 18.2021 2.72705 17.1914 1.8623 15.9561C0.840332 14.4961 0.00927734 12.2388 0.00927734 10.105C0.00927734 6.66846 2.24414 4.84912 4.44531 4.84912C5.60205 4.84912 6.5791 5.61279 7.30908 5.61279C8.00537 5.61279 9.0835 4.8042 10.4199 4.8042ZM9.80225 3.35547C9.20703 4.07422 8.19629 4.61328 7.39893 4.61328C7.30908 4.61328 7.21924 4.60205 7.16309 4.59082C7.15186 4.5459 7.12939 4.41113 7.12939 4.27637C7.12939 3.35547 7.60107 2.45703 8.09521 1.88428C8.73535 1.13184 9.81348 0.570312 10.6895 0.536621C10.7119 0.637695 10.7231 0.76123 10.7231 0.884766C10.7231 1.79443 10.3413 2.7041 9.80225 3.35547Z" fill="black"/>
</svg>
