<svg width="21" height="21" viewBox="0 0 21 21" fill="none" xmlns="http://www.w3.org/2000/svg">
<path fill-rule="evenodd" clip-rule="evenodd" d="M0 10.5C0 4.70101 4.70101 0 10.5 0C16.299 0 21 4.70101 21 10.5C21 16.299 16.299 21 10.5 21C4.70101 21 0 16.299 0 10.5ZM11.6667 5.61111C11.6667 6.25544 11.1443 6.77778 10.5 6.77778C9.85567 6.77778 9.33333 6.25544 9.33333 5.61111C9.33333 4.96678 9.85567 4.44444 10.5 4.44444C11.1443 4.44444 11.6667 4.96678 11.6667 5.61111ZM10.5 8.33333C9.85567 8.33333 9.33333 8.85567 9.33333 9.5V15.1667C9.33333 15.811 9.85567 16.3333 10.5 16.3333C11.1443 16.3333 11.6667 15.811 11.6667 15.1667V9.5C11.6667 8.85567 11.1443 8.33333 10.5 8.33333Z" fill="#292929"/>
</svg>
