<svg width="18" height="20" viewBox="0 0 18 20" fill="none" xmlns="http://www.w3.org/2000/svg">
<path id="Combined Shape" fill-rule="evenodd" clip-rule="evenodd" d="M10.2956 0.347153C9.49385 -0.115718 8.5061 -0.115718 7.70439 0.347156L1.29558 4.04729C0.910545 4.26959 0.596516 4.58243 0.374099 4.95012C0.365224 4.96324 0.356749 4.97676 0.3487 4.99068C0.341103 5.00382 0.334005 5.01712 0.3274 5.03054C0.116211 5.40973 0 5.84224 0 6.2913V13.6916C0 14.6173 0.493868 15.4727 1.29556 15.9356L7.7044 19.6357C8.50609 20.0986 9.49386 20.0986 10.2956 19.6356L16.7044 15.9356C17.5061 15.4727 18 14.6173 18 13.6916V6.2913C18 5.36557 17.5061 4.51016 16.7044 4.04729L10.2956 0.347153ZM1.33333 13.6916V6.32987L8.33331 10.3762V18.4592L1.96224 14.7809C1.57309 14.5562 1.33333 14.1409 1.33333 13.6916ZM16.0377 14.7809L9.66664 18.4592V10.3763L16.6667 6.33478V13.6916C16.6667 14.1409 16.4269 14.5562 16.0377 14.7809ZM13.3753 6.69522L15.9999 5.18011L9.62889 1.50185C9.23972 1.27716 8.76023 1.27716 8.37107 1.50185L6.55459 2.5506L13.192 6.53302C13.2647 6.57668 13.3262 6.63203 13.3753 6.69522ZM5.23678 3.31143L2.00438 5.17766L9.00004 9.22098L12.0989 7.43209L5.28911 3.34623C5.27096 3.33534 5.25351 3.32372 5.23678 3.31143Z" fill="#7A7A7A"/>
</svg>
