<svg width="22" height="25" viewBox="0 0 22 25" fill="none" xmlns="http://www.w3.org/2000/svg">
<path fill-rule="evenodd" clip-rule="evenodd" d="M20.7272 0.364854L21.997 7.67299C22.0125 7.76164 21.9675 7.84963 21.8865 7.8885C21.8054 7.92718 21.7084 7.90817 21.6488 7.84126L19.2152 5.11185C17.7763 3.62513 15.9955 2.68532 14.115 2.28786C12.2347 1.8911 10.2584 2.0412 8.44707 2.74089C7.23933 3.20734 6.1042 3.91738 5.11212 4.87653C3.62512 6.31558 2.68531 8.09591 2.28784 9.97657C1.89123 11.8569 2.04119 13.8332 2.74102 15.6449C3.20766 16.8521 3.91718 17.9875 4.87666 18.9795C6.31543 20.4665 8.09604 21.4063 9.97656 21.8034C11.8569 22.2005 13.8331 22.0505 15.6445 21.3504C16.8524 20.884 17.9877 20.1743 18.9796 19.2151L20.4204 20.7046C18.6298 22.4369 16.4317 23.5061 14.1478 23.9077C11.8634 24.3107 9.48922 24.0509 7.32751 23.1325C5.88691 22.5201 4.54131 21.6137 3.38707 20.4207C1.65478 18.6296 0.585903 16.4319 0.183592 14.1479C-0.218861 11.8632 0.0406417 9.48913 0.959229 7.32799C1.57178 5.88687 2.4778 4.54132 3.67156 3.38722C5.46206 1.65484 7.66014 0.585679 9.94381 0.183744C12.2282 -0.218944 14.6024 0.0405585 16.7641 0.959287C17.3322 1.20081 17.8852 1.48888 18.4181 1.82113L20.0963 0.162664C20.1953 0.0650266 20.3402 0.0301596 20.4729 0.0726023C20.6056 0.115045 20.7035 0.227551 20.7272 0.364854ZM14.23 7.33627C13.6396 6.74523 12.8171 6.37713 11.9152 6.37746C11.0146 6.37713 10.1905 6.74523 9.60172 7.33627C9.01087 7.92558 8.64309 8.74912 8.64309 9.65067V10.802H7.58683V14.7956C7.58683 15.9524 8.52475 16.8898 9.68176 16.8898H14.1501C15.3071 16.8898 16.2447 15.9524 16.2447 14.7956V10.802H15.1888V9.65067C15.1888 8.74912 14.8209 7.92558 14.23 7.33627ZM10.2314 9.65062C10.2314 9.41601 10.2793 9.19589 10.3637 8.99441C10.4903 8.69392 10.7055 8.4348 10.9744 8.25293C11.2444 8.07079 11.5642 7.96623 11.9152 7.96586C12.1502 7.96586 12.3701 8.01277 12.5708 8.09733C12.8727 8.22498 13.1311 8.43993 13.3129 8.70973C13.4939 8.97818 13.5995 9.29767 13.6007 9.65062V10.8019H10.2314V9.65062Z" fill="#313131"/>
</svg>
