<svg width="1920" height="347" viewBox="0 0 1920 347" fill="none" xmlns="http://www.w3.org/2000/svg">
<path d="M-97.6667 1.24023C-97.6667 1.24023 -42.2787 303.127 117.63 276.958C277.538 250.789 281.155 223.221 239.079 153.252C197.004 83.2828 152.28 334.649 235.894 345.648C319.509 356.647 401.56 46.3031 650.391 123.286C899.222 200.269 656.872 336.666 597.292 289.254C537.712 241.843 924.991 72.3971 1160.33 86.5552C1395.68 100.713 1381.74 282.434 1501.97 210.822C1622.21 139.211 1677.32 74.7717 1570.34 97.2571C1463.36 119.742 1576.05 275.001 1720.52 275.001C1865 275.001 1959.68 123.286 1959.68 123.286" stroke="#D6F82E" stroke-width="2" stroke-linecap="round" stroke-dasharray="0 6"/>
</svg>
