<svg width="18" height="21" viewBox="0 0 18 21" fill="none" xmlns="http://www.w3.org/2000/svg">
<path fill-rule="evenodd" clip-rule="evenodd" d="M9.53045 1.00479C9.12547 0.893374 8.69391 0.911944 8.2978 1.0605L1.29775 3.6855L1.14522 3.74999C0.450495 4.07812 0 4.78006 0 5.55816V10.9209L0.00497789 11.2209C0.114267 14.5118 2.0157 17.491 4.97508 18.9708L8.3292 20.6478L8.47253 20.7104C8.86102 20.8564 9.29542 20.8355 9.6708 20.6478L13.0249 18.9708L13.291 18.8321C16.1856 17.2626 18 14.2296 18 10.9209V5.55816L17.9932 5.3927C17.9299 4.62699 17.4309 3.95872 16.7022 3.6855L9.7022 1.0605L9.53045 1.00479ZM7.8348 12.0924L12.4329 7.49427C12.8235 7.10374 13.4566 7.10374 13.8471 7.49427C14.2377 7.88479 14.2377 8.51795 13.8471 8.90847L8.6127 14.143C8.1831 14.5726 7.4866 14.5726 7.057 14.143L4.65285 11.7388C4.26233 11.3483 4.26233 10.7151 4.65285 10.3246C5.04338 9.93407 5.67654 9.93407 6.06707 10.3246L7.8348 12.0924Z" fill="#3D3D3D"/>
</svg>
