<svg width="18" height="17" viewBox="0 0 18 17" fill="none" xmlns="http://www.w3.org/2000/svg">
<path id="Shape" fill-rule="evenodd" clip-rule="evenodd" d="M11.8311 1.09728C10.641 0.382371 9.28753 0 7.88138 0C3.52335 0 0 3.65885 0 8.16102C0 12.6632 3.52334 16.322 7.88138 16.322C9.28748 16.322 10.641 15.9397 11.8311 15.2248C12.12 15.0513 12.2135 14.6764 12.04 14.3876C11.8665 14.0987 11.4917 14.0051 11.2028 14.1787C10.2006 14.7806 9.064 15.1017 7.88138 15.1017C4.20783 15.1017 1.22034 11.9993 1.22034 8.16102C1.22034 4.32274 4.20784 1.22034 7.88138 1.22034C9.06405 1.22034 10.2007 1.54144 11.2028 2.14339C11.4916 2.31692 11.8665 2.22341 12.04 1.93454C12.2135 1.64566 12.12 1.27081 11.8311 1.09728ZM14.4654 4.37363C14.2271 4.13534 13.8407 4.13534 13.6024 4.37363L13.5434 4.44207C13.3661 4.68094 13.3858 5.01992 13.6024 5.23654L15.917 7.55085H6.48305C6.14606 7.55085 5.87288 7.82403 5.87288 8.16102L5.87764 8.23756C5.91529 8.53842 6.17199 8.77119 6.48305 8.77119H15.9163L13.6024 11.0855C13.3642 11.3238 13.3642 11.7101 13.6024 11.9484C13.8407 12.1867 14.2271 12.1867 14.4654 11.9484L17.8213 8.59247L17.8261 8.58585L17.846 8.56625L17.8711 8.53322L17.8841 8.5172L17.8907 8.50962C17.932 8.45033 17.9631 8.38335 17.9814 8.31126L17.9832 8.29831L17.9867 8.28803L17.9901 8.26322L17.9952 8.23756L17.9954 8.22203L17.9985 8.20358L17.9985 8.18314L18 8.16102L17.9985 8.1389L17.9985 8.11846L17.9954 8.09924L17.9952 8.08448L17.9901 8.05805L17.9867 8.034L17.9832 8.02297L17.9814 8.01078C17.9631 7.93868 17.932 7.87171 17.8907 7.81241L17.8841 7.80407L17.8804 7.798L17.8711 7.78805L17.846 7.75578L17.8261 7.73466L17.8213 7.72956L14.4654 4.37363Z" fill="#7A7A7A"/>
</svg>
